<svg width="317" height="259" viewBox="0 0 317 259" fill="none" xmlns="http://www.w3.org/2000/svg">
<g filter="url(#filter0_d)">
<path d="M236.627 59C238.314 53.7775 243.216 50 249 50C256.18 50 262 55.8203 262 63C262 70.1797 256.18 76 249 76C242.853 76 237.702 71.7334 236.348 66H88V131.5C88 133.433 86.433 135 84.5 135H37.6521C36.2978 140.733 31.1472 145 25 145C17.8203 145 12 139.18 12 132C12 124.82 17.8203 119 25 119C30.7841 119 35.6859 122.777 37.373 128H81V62.5C81 60.567 82.567 59 84.5 59H236.627Z" fill="black"/>
</g>
<path d="M236.627 59C238.314 53.7775 243.216 50 249 50C256.18 50 262 55.8203 262 63C262 70.1797 256.18 76 249 76C242.853 76 237.702 71.7334 236.348 66H88V131.5C88 133.433 86.433 135 84.5 135H37.6521C36.2978 140.733 31.1472 145 25 145C17.8203 145 12 139.18 12 132C12 124.82 17.8203 119 25 119C30.7841 119 35.6859 122.777 37.373 128H81V62.5C81 60.567 82.567 59 84.5 59H236.627Z" fill="#F0B90B"/>
<g filter="url(#filter1_d)">
<path d="M189 84.5V216.5C189 218.433 187.433 220 185.5 220C183.567 220 182 218.433 182 216.5V88H65.5C63.567 88 62 86.433 62 84.5C62 82.567 63.567 81 65.5 81H185.5C187.433 81 189 82.567 189 84.5Z" fill="black"/>
</g>
<path d="M189 84.5V216.5C189 218.433 187.433 220 185.5 220C183.567 220 182 218.433 182 216.5V88H65.5C63.567 88 62 86.433 62 84.5C62 82.567 63.567 81 65.5 81H185.5C187.433 81 189 82.567 189 84.5Z" fill="white"/>
<g filter="url(#filter2_d)">
<path d="M151 138H287.5C289.433 138 291 139.567 291 141.5C291 143.433 289.433 145 287.5 145H147.5C145.567 145 144 143.433 144 141.5V21.5C144 19.567 145.567 18 147.5 18C149.433 18 151 19.567 151 21.5V138Z" fill="black"/>
</g>
<path d="M151 138H287.5C289.433 138 291 139.567 291 141.5C291 143.433 289.433 145 287.5 145H147.5C145.567 145 144 143.433 144 141.5V21.5C144 19.567 145.567 18 147.5 18C149.433 18 151 19.567 151 21.5V138Z" fill="white"/>
<g filter="url(#filter3_d)">
<path d="M62 98C69.1797 98 75 92.1797 75 85C75 77.8203 69.1797 72 62 72C54.8203 72 49 77.8203 49 85C49 92.1797 54.8203 98 62 98Z" fill="black"/>
</g>
<path d="M62 98C69.1797 98 75 92.1797 75 85C75 77.8203 69.1797 72 62 72C54.8203 72 49 77.8203 49 85C49 92.1797 54.8203 98 62 98Z" fill="white"/>
<g filter="url(#filter4_d)">
<path d="M148 31C155.18 31 161 25.1797 161 18C161 10.8203 155.18 5 148 5C140.82 5 135 10.8203 135 18C135 25.1797 140.82 31 148 31Z" fill="black"/>
</g>
<path d="M148 31C155.18 31 161 25.1797 161 18C161 10.8203 155.18 5 148 5C140.82 5 135 10.8203 135 18C135 25.1797 140.82 31 148 31Z" fill="white"/>
<g filter="url(#filter5_d)">
<path d="M294 155C301.18 155 307 149.18 307 142C307 134.82 301.18 129 294 129C286.82 129 281 134.82 281 142C281 149.18 286.82 155 294 155Z" fill="black"/>
</g>
<path d="M294 155C301.18 155 307 149.18 307 142C307 134.82 301.18 129 294 129C286.82 129 281 134.82 281 142C281 149.18 286.82 155 294 155Z" fill="white"/>
<g filter="url(#filter6_d)">
<path d="M186 244C193.18 244 199 238.18 199 231C199 223.82 193.18 218 186 218C178.82 218 173 223.82 173 231C173 238.18 178.82 244 186 244Z" fill="black"/>
</g>
<path d="M186 244C193.18 244 199 238.18 199 231C199 223.82 193.18 218 186 218C178.82 218 173 223.82 173 231C173 238.18 178.82 244 186 244Z" fill="white"/>
<g filter="url(#filter7_d)">
<path d="M223.5 180H85.5C83.567 180 82 178.433 82 176.5C82 174.567 83.567 173 85.5 173H220V109.5C220 107.567 221.567 106 223.5 106C225.433 106 227 107.567 227 109.5V176.5C227 178.433 225.433 180 223.5 180Z" fill="black"/>
</g>
<path d="M223.5 180H85.5C83.567 180 82 178.433 82 176.5C82 174.567 83.567 173 85.5 173H220V109.5C220 107.567 221.567 106 223.5 106C225.433 106 227 107.567 227 109.5V176.5C227 178.433 225.433 180 223.5 180Z" fill="white"/>
<g filter="url(#filter8_d)">
<path d="M223 119C230.18 119 236 113.18 236 106C236 98.8203 230.18 93 223 93C215.82 93 210 98.8203 210 106C210 113.18 215.82 119 223 119Z" fill="black"/>
</g>
<path d="M223 119C230.18 119 236 113.18 236 106C236 98.8203 230.18 93 223 93C215.82 93 210 98.8203 210 106C210 113.18 215.82 119 223 119Z" fill="white"/>
<g filter="url(#filter9_d)">
<path d="M82 190C89.1797 190 95 184.18 95 177C95 169.82 89.1797 164 82 164C74.8203 164 69 169.82 69 177C69 184.18 74.8203 190 82 190Z" fill="black"/>
</g>
<path d="M82 190C89.1797 190 95 184.18 95 177C95 169.82 89.1797 164 82 164C74.8203 164 69 169.82 69 177C69 184.18 74.8203 190 82 190Z" fill="white"/>
<g filter="url(#filter10_d)">
<path d="M241.627 201C243.314 195.777 248.216 192 254 192C261.18 192 267 197.82 267 205C267 212.18 261.18 218 254 218C247.853 218 242.702 213.733 241.348 208H120.5C118.567 208 117 206.433 117 204.5V123.652C111.267 122.298 107 117.147 107 111C107 103.82 112.82 98 120 98C127.18 98 133 103.82 133 111C133 116.784 129.223 121.686 124 123.373V201H241.627Z" fill="black"/>
</g>
<path d="M241.627 201C243.314 195.777 248.216 192 254 192C261.18 192 267 197.82 267 205C267 212.18 261.18 218 254 218C247.853 218 242.702 213.733 241.348 208H120.5C118.567 208 117 206.433 117 204.5V123.652C111.267 122.298 107 117.147 107 111C107 103.82 112.82 98 120 98C127.18 98 133 103.82 133 111C133 116.784 129.223 121.686 124 123.373V201H241.627Z" fill="#F0B90B"/>
<defs>
<filter id="filter0_d" x="0" y="44" width="274" height="119" filterUnits="userSpaceOnUse" color-interpolation-filters="sRGB">
<feFlood flood-opacity="0" result="BackgroundImageFix"/>
<feColorMatrix in="SourceAlpha" type="matrix" values="0 0 0 0 0 0 0 0 0 0 0 0 0 0 0 0 0 0 127 0"/>
<feOffset dy="6"/>
<feGaussianBlur stdDeviation="6"/>
<feColorMatrix type="matrix" values="0 0 0 0 0.25 0 0 0 0 0.507 0 0 0 0 1 0 0 0 0.25 0"/>
<feBlend mode="normal" in2="BackgroundImageFix" result="effect1_dropShadow"/>
<feBlend mode="normal" in="SourceGraphic" in2="effect1_dropShadow" result="shape"/>
</filter>
<filter id="filter1_d" x="50" y="75" width="151" height="163" filterUnits="userSpaceOnUse" color-interpolation-filters="sRGB">
<feFlood flood-opacity="0" result="BackgroundImageFix"/>
<feColorMatrix in="SourceAlpha" type="matrix" values="0 0 0 0 0 0 0 0 0 0 0 0 0 0 0 0 0 0 127 0"/>
<feOffset dy="6"/>
<feGaussianBlur stdDeviation="6"/>
<feColorMatrix type="matrix" values="0 0 0 0 0.25 0 0 0 0 0.507 0 0 0 0 1 0 0 0 0.25 0"/>
<feBlend mode="normal" in2="BackgroundImageFix" result="effect1_dropShadow"/>
<feBlend mode="normal" in="SourceGraphic" in2="effect1_dropShadow" result="shape"/>
</filter>
<filter id="filter2_d" x="132" y="12" width="171" height="151" filterUnits="userSpaceOnUse" color-interpolation-filters="sRGB">
<feFlood flood-opacity="0" result="BackgroundImageFix"/>
<feColorMatrix in="SourceAlpha" type="matrix" values="0 0 0 0 0 0 0 0 0 0 0 0 0 0 0 0 0 0 127 0"/>
<feOffset dy="6"/>
<feGaussianBlur stdDeviation="6"/>
<feColorMatrix type="matrix" values="0 0 0 0 0.25 0 0 0 0 0.507 0 0 0 0 1 0 0 0 0.25 0"/>
<feBlend mode="normal" in2="BackgroundImageFix" result="effect1_dropShadow"/>
<feBlend mode="normal" in="SourceGraphic" in2="effect1_dropShadow" result="shape"/>
</filter>
<filter id="filter3_d" x="39" y="67" width="46" height="46" filterUnits="userSpaceOnUse" color-interpolation-filters="sRGB">
<feFlood flood-opacity="0" result="BackgroundImageFix"/>
<feColorMatrix in="SourceAlpha" type="matrix" values="0 0 0 0 0 0 0 0 0 0 0 0 0 0 0 0 0 0 127 0"/>
<feOffset dy="5"/>
<feGaussianBlur stdDeviation="5"/>
<feColorMatrix type="matrix" values="0 0 0 0 0.25 0 0 0 0 0.507 0 0 0 0 1 0 0 0 0.25 0"/>
<feBlend mode="normal" in2="BackgroundImageFix" result="effect1_dropShadow"/>
<feBlend mode="normal" in="SourceGraphic" in2="effect1_dropShadow" result="shape"/>
</filter>
<filter id="filter4_d" x="125" y="0" width="46" height="46" filterUnits="userSpaceOnUse" color-interpolation-filters="sRGB">
<feFlood flood-opacity="0" result="BackgroundImageFix"/>
<feColorMatrix in="SourceAlpha" type="matrix" values="0 0 0 0 0 0 0 0 0 0 0 0 0 0 0 0 0 0 127 0"/>
<feOffset dy="5"/>
<feGaussianBlur stdDeviation="5"/>
<feColorMatrix type="matrix" values="0 0 0 0 0.25 0 0 0 0 0.507 0 0 0 0 1 0 0 0 0.25 0"/>
<feBlend mode="normal" in2="BackgroundImageFix" result="effect1_dropShadow"/>
<feBlend mode="normal" in="SourceGraphic" in2="effect1_dropShadow" result="shape"/>
</filter>
<filter id="filter5_d" x="271" y="124" width="46" height="46" filterUnits="userSpaceOnUse" color-interpolation-filters="sRGB">
<feFlood flood-opacity="0" result="BackgroundImageFix"/>
<feColorMatrix in="SourceAlpha" type="matrix" values="0 0 0 0 0 0 0 0 0 0 0 0 0 0 0 0 0 0 127 0"/>
<feOffset dy="5"/>
<feGaussianBlur stdDeviation="5"/>
<feColorMatrix type="matrix" values="0 0 0 0 0.25 0 0 0 0 0.507 0 0 0 0 1 0 0 0 0.25 0"/>
<feBlend mode="normal" in2="BackgroundImageFix" result="effect1_dropShadow"/>
<feBlend mode="normal" in="SourceGraphic" in2="effect1_dropShadow" result="shape"/>
</filter>
<filter id="filter6_d" x="163" y="213" width="46" height="46" filterUnits="userSpaceOnUse" color-interpolation-filters="sRGB">
<feFlood flood-opacity="0" result="BackgroundImageFix"/>
<feColorMatrix in="SourceAlpha" type="matrix" values="0 0 0 0 0 0 0 0 0 0 0 0 0 0 0 0 0 0 127 0"/>
<feOffset dy="5"/>
<feGaussianBlur stdDeviation="5"/>
<feColorMatrix type="matrix" values="0 0 0 0 0.25 0 0 0 0 0.507 0 0 0 0 1 0 0 0 0.25 0"/>
<feBlend mode="normal" in2="BackgroundImageFix" result="effect1_dropShadow"/>
<feBlend mode="normal" in="SourceGraphic" in2="effect1_dropShadow" result="shape"/>
</filter>
<filter id="filter7_d" x="70" y="100" width="169" height="98" filterUnits="userSpaceOnUse" color-interpolation-filters="sRGB">
<feFlood flood-opacity="0" result="BackgroundImageFix"/>
<feColorMatrix in="SourceAlpha" type="matrix" values="0 0 0 0 0 0 0 0 0 0 0 0 0 0 0 0 0 0 127 0"/>
<feOffset dy="6"/>
<feGaussianBlur stdDeviation="6"/>
<feColorMatrix type="matrix" values="0 0 0 0 0.25 0 0 0 0 0.507 0 0 0 0 1 0 0 0 0.25 0"/>
<feBlend mode="normal" in2="BackgroundImageFix" result="effect1_dropShadow"/>
<feBlend mode="normal" in="SourceGraphic" in2="effect1_dropShadow" result="shape"/>
</filter>
<filter id="filter8_d" x="198" y="87" width="50" height="50" filterUnits="userSpaceOnUse" color-interpolation-filters="sRGB">
<feFlood flood-opacity="0" result="BackgroundImageFix"/>
<feColorMatrix in="SourceAlpha" type="matrix" values="0 0 0 0 0 0 0 0 0 0 0 0 0 0 0 0 0 0 127 0"/>
<feOffset dy="6"/>
<feGaussianBlur stdDeviation="6"/>
<feColorMatrix type="matrix" values="0 0 0 0 0.25 0 0 0 0 0.507 0 0 0 0 1 0 0 0 0.25 0"/>
<feBlend mode="normal" in2="BackgroundImageFix" result="effect1_dropShadow"/>
<feBlend mode="normal" in="SourceGraphic" in2="effect1_dropShadow" result="shape"/>
</filter>
<filter id="filter9_d" x="57" y="158" width="50" height="50" filterUnits="userSpaceOnUse" color-interpolation-filters="sRGB">
<feFlood flood-opacity="0" result="BackgroundImageFix"/>
<feColorMatrix in="SourceAlpha" type="matrix" values="0 0 0 0 0 0 0 0 0 0 0 0 0 0 0 0 0 0 127 0"/>
<feOffset dy="6"/>
<feGaussianBlur stdDeviation="6"/>
<feColorMatrix type="matrix" values="0 0 0 0 0.25 0 0 0 0 0.507 0 0 0 0 1 0 0 0 0.25 0"/>
<feBlend mode="normal" in2="BackgroundImageFix" result="effect1_dropShadow"/>
<feBlend mode="normal" in="SourceGraphic" in2="effect1_dropShadow" result="shape"/>
</filter>
<filter id="filter10_d" x="95" y="92" width="184" height="144" filterUnits="userSpaceOnUse" color-interpolation-filters="sRGB">
<feFlood flood-opacity="0" result="BackgroundImageFix"/>
<feColorMatrix in="SourceAlpha" type="matrix" values="0 0 0 0 0 0 0 0 0 0 0 0 0 0 0 0 0 0 127 0"/>
<feOffset dy="6"/>
<feGaussianBlur stdDeviation="6"/>
<feColorMatrix type="matrix" values="0 0 0 0 0.25 0 0 0 0 0.507 0 0 0 0 1 0 0 0 0.25 0"/>
<feBlend mode="normal" in2="BackgroundImageFix" result="effect1_dropShadow"/>
<feBlend mode="normal" in="SourceGraphic" in2="effect1_dropShadow" result="shape"/>
</filter>
</defs>
</svg>
