<svg width="282" height="213" viewBox="0 0 282 213" fill="none" xmlns="http://www.w3.org/2000/svg">
<g clip-path="url(#clip0)">
<g filter="url(#filter0_d)">
<path d="M266.691 128.559C266.691 136.501 264.999 143.549 261.613 149.701C258.228 155.854 253.622 160.867 247.795 164.74C241.968 168.614 235.344 171.299 227.922 172.797V183.934C227.922 186.143 226.131 187.934 223.922 187.934H203.602C201.392 187.934 199.602 186.143 199.602 183.934V172.309C190.747 170.355 184.258 167.935 175.432 162.445C170.481 159.366 165.582 155.398 160.736 150.541V150.541C159.191 148.993 159.176 146.492 160.702 144.925L176.836 128.359C178.377 126.776 180.91 126.743 182.492 128.284C182.56 128.35 182.626 128.419 182.689 128.49C188.184 134.663 192.78 138.739 196.477 140.717C202.943 144.177 208.391 145.844 215.227 145.844C221.216 145.844 225.855 144.493 229.143 141.791C232.43 139.089 234.074 135.362 234.074 130.609C234.074 126.964 232.967 123.855 230.754 121.283C228.54 118.712 225.725 116.547 222.307 114.789C218.889 113.031 213.99 110.883 207.609 108.344L204.582 107.172C196.704 104.047 190.015 100.824 184.514 97.5039C179.012 94.1836 174.325 89.6752 170.451 83.9785C166.577 78.2819 164.641 71.2019 164.641 62.7383C164.641 55.5117 166.154 49.0664 169.182 43.4023C172.209 37.7383 176.359 33.0671 181.633 29.3887C186.906 25.7103 192.896 23.0899 199.602 21.5273V10C199.602 7.79086 201.392 6 203.602 6H223.922C226.131 6 227.922 7.79086 227.922 10V21.8203C236.945 23.802 247.143 29.6158 258.516 39.262L258.516 39.262C260.2 40.6909 260.408 43.2151 258.979 44.8998C258.902 44.9905 258.821 45.0777 258.736 45.1612L244.185 59.5033C242.661 61.0054 240.225 61.0421 238.656 59.5867C229.765 51.3362 221.239 47.2109 213.078 47.2109C208.586 47.2109 204.875 48.3502 201.945 50.6289C199.016 52.9076 197.551 55.9674 197.551 59.8086C197.551 62.9987 198.592 65.7331 200.676 68.0117C202.759 70.2904 205.347 72.2272 208.439 73.8223C211.532 75.4173 215.91 77.3867 221.574 79.7305C222.355 79.9909 223.527 80.4466 225.09 81.0977C233.358 84.4831 240.389 87.9824 246.184 91.5957C251.978 95.209 256.844 100.059 260.783 106.146C264.722 112.234 266.691 119.704 266.691 128.559Z" fill="black"/>
</g>
<path d="M266.691 128.559C266.691 136.501 264.999 143.549 261.613 149.701C258.228 155.854 253.622 160.867 247.795 164.74C241.968 168.614 235.344 171.299 227.922 172.797V183.934C227.922 186.143 226.131 187.934 223.922 187.934H203.602C201.392 187.934 199.602 186.143 199.602 183.934V172.309C190.747 170.355 184.258 167.935 175.432 162.445C170.481 159.366 165.582 155.398 160.736 150.541V150.541C159.191 148.993 159.176 146.492 160.702 144.925L176.836 128.359C178.377 126.776 180.91 126.743 182.492 128.284C182.56 128.35 182.626 128.419 182.689 128.49C188.184 134.663 192.78 138.739 196.477 140.717C202.943 144.177 208.391 145.844 215.227 145.844C221.216 145.844 225.855 144.493 229.143 141.791C232.43 139.089 234.074 135.362 234.074 130.609C234.074 126.964 232.967 123.855 230.754 121.283C228.54 118.712 225.725 116.547 222.307 114.789C218.889 113.031 213.99 110.883 207.609 108.344L204.582 107.172C196.704 104.047 190.015 100.824 184.514 97.5039C179.012 94.1836 174.325 89.6752 170.451 83.9785C166.577 78.2819 164.641 71.2019 164.641 62.7383C164.641 55.5117 166.154 49.0664 169.182 43.4023C172.209 37.7383 176.359 33.0671 181.633 29.3887C186.906 25.7103 192.896 23.0899 199.602 21.5273V10C199.602 7.79086 201.392 6 203.602 6H223.922C226.131 6 227.922 7.79086 227.922 10V21.8203C236.945 23.802 247.143 29.6158 258.516 39.262L258.516 39.262C260.2 40.6909 260.408 43.2151 258.979 44.8998C258.902 44.9905 258.821 45.0777 258.736 45.1612L244.185 59.5033C242.661 61.0054 240.225 61.0421 238.656 59.5867C229.765 51.3362 221.239 47.2109 213.078 47.2109C208.586 47.2109 204.875 48.3502 201.945 50.6289C199.016 52.9076 197.551 55.9674 197.551 59.8086C197.551 62.9987 198.592 65.7331 200.676 68.0117C202.759 70.2904 205.347 72.2272 208.439 73.8223C211.532 75.4173 215.91 77.3867 221.574 79.7305C222.355 79.9909 223.527 80.4466 225.09 81.0977C233.358 84.4831 240.389 87.9824 246.184 91.5957C251.978 95.209 256.844 100.059 260.783 106.146C264.722 112.234 266.691 119.704 266.691 128.559Z" fill="white"/>
<g filter="url(#filter1_d)">
<path d="M53.0908 18H110.948C113.267 18 115.148 19.8804 115.148 22.2C115.148 23.0596 114.884 23.8986 114.392 24.6035L73.9606 82.5427H107.261C109.58 82.5427 111.461 84.4231 111.461 86.7427C111.461 87.7429 111.104 88.7102 110.454 89.4707L34.6347 178.228C33.1281 179.991 30.4769 180.2 28.7132 178.693C27.3369 177.518 26.8687 175.592 27.5513 173.916L50.1673 118.374H19.0339C16.7143 118.374 14.8339 116.494 14.8339 114.174C14.8339 113.676 14.9224 113.183 15.0952 112.716L49.1521 20.7416C49.7623 19.0938 51.3337 18 53.0908 18Z" fill="black"/>
</g>
<path d="M53.0908 18H110.948C113.267 18 115.148 19.8804 115.148 22.2C115.148 23.0596 114.884 23.8986 114.392 24.6035L73.9606 82.5427H107.261C109.58 82.5427 111.461 84.4231 111.461 86.7427C111.461 87.7429 111.104 88.7102 110.454 89.4707L34.6347 178.228C33.1281 179.991 30.4769 180.2 28.7132 178.693C27.3369 177.518 26.8687 175.592 27.5513 173.916L50.1673 118.374H19.0339C16.7143 118.374 14.8339 116.494 14.8339 114.174C14.8339 113.676 14.9224 113.183 15.0952 112.716L49.1521 20.7416C49.7623 19.0938 51.3337 18 53.0908 18Z" fill="#F0B90B"/>
</g>
<defs>
<filter id="filter0_d" x="143.567" y="0" width="139.124" height="213.934" filterUnits="userSpaceOnUse" color-interpolation-filters="sRGB">
<feFlood flood-opacity="0" result="BackgroundImageFix"/>
<feColorMatrix in="SourceAlpha" type="matrix" values="0 0 0 0 0 0 0 0 0 0 0 0 0 0 0 0 0 0 127 0"/>
<feOffset dy="10"/>
<feGaussianBlur stdDeviation="8"/>
<feColorMatrix type="matrix" values="0 0 0 0 0.25 0 0 0 0 0.507 0 0 0 0 1 0 0 0 0.2 0"/>
<feBlend mode="normal" in2="BackgroundImageFix" result="effect1_dropShadow"/>
<feBlend mode="normal" in="SourceGraphic" in2="effect1_dropShadow" result="shape"/>
</filter>
<filter id="filter1_d" x="-1.16614" y="12" width="132.314" height="193.7" filterUnits="userSpaceOnUse" color-interpolation-filters="sRGB">
<feFlood flood-opacity="0" result="BackgroundImageFix"/>
<feColorMatrix in="SourceAlpha" type="matrix" values="0 0 0 0 0 0 0 0 0 0 0 0 0 0 0 0 0 0 127 0"/>
<feOffset dy="10"/>
<feGaussianBlur stdDeviation="8"/>
<feColorMatrix type="matrix" values="0 0 0 0 0.25 0 0 0 0 0.507 0 0 0 0 1 0 0 0 0.25 0"/>
<feBlend mode="normal" in2="BackgroundImageFix" result="effect1_dropShadow"/>
<feBlend mode="normal" in="SourceGraphic" in2="effect1_dropShadow" result="shape"/>
</filter>
<clipPath id="clip0">
<rect width="282" height="213" fill="white"/>
</clipPath>
</defs>
</svg>
