<svg width="859" height="417" viewBox="0 0 859 417" fill="none" xmlns="http://www.w3.org/2000/svg">
<path d="M370.207 182.055L365.168 211H345.129L359.895 125.688L390.539 125.746C400.031 125.746 407.492 128.383 412.922 133.656C418.391 138.93 420.793 145.766 420.129 154.164C419.66 159.906 417.824 164.887 414.621 169.105C411.418 173.324 407.18 176.547 401.906 178.773C396.672 181 390.793 182.113 384.27 182.113L370.207 182.055ZM372.961 166.176L385.031 166.293C390.109 166.176 393.996 164.535 396.691 161.371C399.387 158.168 400.461 154.242 399.914 149.594C399.602 147.211 398.684 145.336 397.16 143.969C395.676 142.562 393.703 141.781 391.242 141.625L377.238 141.566L372.961 166.176ZM440.988 211H421.652L432.668 147.602H452.004L440.988 211ZM434.367 131.605C434.289 128.754 435.285 126.371 437.355 124.457C439.465 122.543 442.004 121.586 444.973 121.586C447.98 121.586 450.48 122.445 452.473 124.164C454.504 125.883 455.559 128.129 455.637 130.902C455.715 133.793 454.719 136.195 452.648 138.109C450.578 139.984 448.039 140.922 445.031 140.922C442.102 140.922 439.602 140.082 437.531 138.402C435.5 136.684 434.445 134.418 434.367 131.605ZM481.828 147.543L480.48 155.16C485.559 149.145 491.672 146.215 498.82 146.371C504.68 146.488 509.035 148.676 511.887 152.934C514.777 157.152 515.832 163.207 515.051 171.098L508.371 211H489.035L495.773 170.98C495.93 169.613 495.969 168.363 495.891 167.23C495.617 163.52 493.43 161.664 489.328 161.664C485.93 161.586 482.824 163.09 480.012 166.176L472.102 211H452.824L463.84 147.602L481.828 147.543ZM548.859 187.621L541.828 193.715L538.84 211H519.562L535.207 120.941H554.484L545.578 168.988L547.922 166.176L565.441 147.602H589.875L562.922 174.555L579.27 211H558.117L548.859 187.621ZM685.676 181.938C685.168 187.914 683.195 193.227 679.758 197.875C676.359 202.523 671.867 206.098 666.281 208.598C660.734 211.098 654.719 212.289 648.234 212.172C639.328 211.977 632.316 209.105 627.199 203.559C622.082 198.012 619.289 190.492 618.82 181C618.469 174.672 619.152 167.777 620.871 160.316C622.629 152.855 625.461 146.371 629.367 140.863C633.312 135.316 637.941 131.176 643.254 128.441C648.605 125.668 654.445 124.34 660.773 124.457C670.07 124.613 677.414 127.406 682.805 132.836C688.234 138.266 691.184 145.746 691.652 155.277L671.672 155.219C671.75 150.023 670.812 146.312 668.859 144.086C666.906 141.859 663.82 140.668 659.602 140.512C649.055 140.16 642.629 148.363 640.324 165.121C639.27 172.699 638.742 178.109 638.742 181.352C638.547 190.961 642.102 195.902 649.406 196.176C654.133 196.332 657.902 195.18 660.715 192.719C663.527 190.219 665.324 186.703 666.105 182.172L685.676 181.938ZM726.047 211C725.5 209.477 725.227 207.562 725.227 205.258C720.891 210.023 715.715 212.328 709.699 212.172C704.191 212.094 699.621 210.258 695.988 206.664C692.355 203.07 690.656 198.715 690.891 193.598C691.086 186.723 693.957 181.449 699.504 177.777C705.051 174.066 712.629 172.211 722.238 172.211L728.684 172.328L729.387 168.754L729.621 165.648C729.465 162.094 727.688 160.258 724.289 160.141C720.07 160.062 717.473 162.387 716.496 167.113L697.16 167.172C697.355 162.914 698.742 159.223 701.32 156.098C703.898 152.934 707.395 150.512 711.809 148.832C716.262 147.113 720.988 146.312 725.988 146.43C730.793 146.547 734.992 147.562 738.586 149.477C742.219 151.352 744.934 153.988 746.73 157.387C748.527 160.746 749.211 164.633 748.781 169.047L744.035 198.871L743.742 202.504C743.586 205.395 743.957 207.855 744.855 209.887L744.797 211H726.047ZM715.031 198.227C718.977 198.383 722.434 196.645 725.402 193.012L727.336 182.816L722.355 182.758C719.27 182.836 716.613 183.754 714.387 185.512C712.16 187.23 710.852 189.594 710.461 192.602C710.266 194.203 710.559 195.531 711.34 196.586C712.16 197.602 713.391 198.148 715.031 198.227ZM798.41 165.473C796.34 165.16 794.348 164.965 792.434 164.887C786.652 164.73 782.238 166.723 779.191 170.863L772.043 211H752.766L763.781 147.602L781.77 147.543L780.305 155.863C784.445 149.457 789.328 146.254 794.953 146.254C796.555 146.254 798.547 146.527 800.93 147.074L798.41 165.473ZM827.766 212.172C822.102 212.133 817.043 210.805 812.59 208.188C808.176 205.531 804.836 201.859 802.57 197.172C800.305 192.445 799.406 187.25 799.875 181.586L800.051 179.945C801.105 169.516 804.719 161.273 810.891 155.219C817.102 149.125 824.699 146.195 833.684 146.43C839.113 146.508 843.762 147.895 847.629 150.59C851.496 153.246 854.328 156.938 856.125 161.664C857.922 166.352 858.508 171.625 857.883 177.484L856.77 185.512H819.035C819.113 188.832 820.051 191.527 821.848 193.598C823.645 195.668 826.262 196.762 829.699 196.879C835.285 197.035 840.305 194.887 844.758 190.434L852.844 201.156C850.461 204.555 847.121 207.23 842.824 209.184C838.566 211.098 833.898 212.094 828.82 212.172H827.766ZM832.453 161.605C829.719 161.527 827.336 162.387 825.305 164.184C823.312 165.98 821.574 168.988 820.09 173.207H839.367L839.719 171.508C839.953 170.141 839.992 168.852 839.836 167.641C839.172 163.734 836.711 161.723 832.453 161.605ZM519.738 282.566H494.895L482.883 352H462.785L474.855 282.566H450.422L453.234 266.688H522.492L519.738 282.566ZM540.48 287.43C546.145 287.508 551.047 288.934 555.188 291.707C559.328 294.441 562.355 298.27 564.27 303.191C566.223 308.113 566.926 313.582 566.379 319.598L566.262 320.887C565.168 330.613 561.555 338.465 555.422 344.441C549.289 350.418 541.711 353.328 532.688 353.172C527.062 353.094 522.199 351.707 518.098 349.012C513.996 346.277 510.949 342.469 508.957 337.586C507.004 332.703 506.301 327.273 506.848 321.297C507.824 310.906 511.379 302.625 517.512 296.453C523.684 290.281 531.34 287.273 540.48 287.43ZM526.125 321.297L525.949 324.754C525.402 333.465 528.059 337.898 533.918 338.055C541.496 338.289 545.891 332.137 547.102 319.598L547.336 314.266C547.414 310.75 546.75 307.957 545.344 305.887C543.977 303.777 541.945 302.684 539.25 302.605C535.695 302.488 532.766 303.953 530.461 307C528.195 310.008 526.75 314.773 526.125 321.297ZM598.898 328.621L591.867 334.715L588.879 352H569.602L585.246 261.941H604.523L595.617 309.988L597.961 307.176L615.48 288.602H639.914L612.961 315.555L629.309 352H608.156L598.898 328.621ZM664.055 353.172C658.391 353.133 653.332 351.805 648.879 349.188C644.465 346.531 641.125 342.859 638.859 338.172C636.594 333.445 635.695 328.25 636.164 322.586L636.34 320.945C637.395 310.516 641.008 302.273 647.18 296.219C653.391 290.125 660.988 287.195 669.973 287.43C675.402 287.508 680.051 288.895 683.918 291.59C687.785 294.246 690.617 297.938 692.414 302.664C694.211 307.352 694.797 312.625 694.172 318.484L693.059 326.512H655.324C655.402 329.832 656.34 332.527 658.137 334.598C659.934 336.668 662.551 337.762 665.988 337.879C671.574 338.035 676.594 335.887 681.047 331.434L689.133 342.156C686.75 345.555 683.41 348.23 679.113 350.184C674.855 352.098 670.188 353.094 665.109 353.172H664.055ZM668.742 302.605C666.008 302.527 663.625 303.387 661.594 305.184C659.602 306.98 657.863 309.988 656.379 314.207H675.656L676.008 312.508C676.242 311.141 676.281 309.852 676.125 308.641C675.461 304.734 673 302.723 668.742 302.605ZM725.109 288.543L723.762 296.16C728.84 290.145 734.953 287.215 742.102 287.371C747.961 287.488 752.316 289.676 755.168 293.934C758.059 298.152 759.113 304.207 758.332 312.098L751.652 352H732.316L739.055 311.98C739.211 310.613 739.25 309.363 739.172 308.23C738.898 304.52 736.711 302.664 732.609 302.664C729.211 302.586 726.105 304.09 723.293 307.176L715.383 352H696.105L707.121 288.602L725.109 288.543Z" fill="#F0B90B"/>
<ellipse cx="177" cy="148" rx="145" ry="148" fill="#F0B90B"/>
<ellipse cx="177.5" cy="147.5" rx="64.5" ry="66.5" fill="#312F2F"/>
<path d="M60.5147 306.96C36.1863 313.614 23.2455 323.118 1 346.975L54.25 401.395C71.739 410.656 83.607 412.826 105.934 415H214C172.779 369.621 150.94 342.035 101.235 310.961C86.7046 306.224 78.002 304.854 60.5147 306.96Z" fill="#DE48E1" stroke="#DE48E1"/>
<path d="M254.918 322.147C218.109 333.206 214.913 342.951 201 358.663L248.667 407.087C267.482 417.647 274.901 417.498 286.175 413.437C312.021 392.001 325.062 380.002 344 358.663C312.709 329.983 293.521 320.684 254.918 322.147Z" fill="#DE48E1" stroke="#DE48E1"/>
</svg>
