<svg width="337" height="271" viewBox="0 0 337 271" fill="none" xmlns="http://www.w3.org/2000/svg">
<g clip-path="url(#clip0)">
<g filter="url(#filter0_d)">
<path d="M313 6H149C146.791 6 145 7.79086 145 10V22C145 24.2091 146.791 26 149 26H313C315.209 26 317 24.2091 317 22V10C317 7.79086 315.209 6 313 6Z" fill="#F0B90B"/>
</g>
<path d="M313 6H149C146.791 6 145 7.79086 145 10V22C145 24.2091 146.791 26 149 26H313C315.209 26 317 24.2091 317 22V10C317 7.79086 315.209 6 313 6Z" fill="white"/>
<g filter="url(#filter1_d)">
<path d="M121 6H24C21.7909 6 20 7.79086 20 10V22C20 24.2091 21.7909 26 24 26H121C123.209 26 125 24.2091 125 22V10C125 7.79086 123.209 6 121 6Z" fill="#F0B90B"/>
</g>
<path d="M121 6H24C21.7909 6 20 7.79086 20 10V22C20 24.2091 21.7909 26 24 26H121C123.209 26 125 24.2091 125 22V10C125 7.79086 123.209 6 121 6Z" fill="#F0B90B"/>
<g filter="url(#filter2_d)">
<path d="M313 78H238C235.791 78 234 79.7909 234 82V94C234 96.2091 235.791 98 238 98H313C315.209 98 317 96.2091 317 94V82C317 79.7909 315.209 78 313 78Z" fill="#F0B90B"/>
</g>
<path d="M313 78H238C235.791 78 234 79.7909 234 82V94C234 96.2091 235.791 98 238 98H313C315.209 98 317 96.2091 317 94V82C317 79.7909 315.209 78 313 78Z" fill="#F0B90B"/>
<g filter="url(#filter3_d)">
<path d="M313 42H24C21.7909 42 20 43.7909 20 46V58C20 60.2091 21.7909 62 24 62H313C315.209 62 317 60.2091 317 58V46C317 43.7909 315.209 42 313 42Z" fill="#F0B90B"/>
</g>
<path d="M313 42H24C21.7909 42 20 43.7909 20 46V58C20 60.2091 21.7909 62 24 62H313C315.209 62 317 60.2091 317 58V46C317 43.7909 315.209 42 313 42Z" fill="white"/>
<g filter="url(#filter4_d)">
<path d="M210 78H24C21.7909 78 20 79.7909 20 82V94C20 96.2091 21.7909 98 24 98H210C212.209 98 214 96.2091 214 94V82C214 79.7909 212.209 78 210 78Z" fill="#F0B90B"/>
</g>
<path d="M210 78H24C21.7909 78 20 79.7909 20 82V94C20 96.2091 21.7909 98 24 98H210C212.209 98 214 96.2091 214 94V82C214 79.7909 212.209 78 210 78Z" fill="white"/>
<g filter="url(#filter5_d)">
<path d="M168.433 113.003C169.047 112.991 169.67 113.168 170.21 113.549L219.918 148.688L223.345 143.79C224.01 142.839 225.319 142.608 226.27 143.273C226.538 143.461 226.758 143.708 226.914 143.996L236.248 161.293C236.799 162.314 236.418 163.588 235.397 164.139C234.996 164.355 234.535 164.435 234.084 164.367L214.71 161.42C213.563 161.245 212.775 160.174 212.95 159.028C212.998 158.708 213.12 158.404 213.305 158.14L216.483 153.597L168.399 119.607L120.104 153.597L123.293 158.135C123.48 158.401 123.603 158.707 123.652 159.028C123.825 160.175 123.036 161.245 121.89 161.419L102.415 164.368C101.963 164.437 101.501 164.356 101.1 164.138C100.08 163.586 99.7015 162.311 100.254 161.291L109.637 143.98C109.791 143.695 110.01 143.449 110.276 143.263C111.224 142.596 112.534 142.825 113.201 143.774L116.654 148.688L166.584 113.547C167.146 113.152 167.796 112.976 168.433 113.003Z" fill="#F0B90B"/>
</g>
<path d="M168.433 113.003C169.047 112.991 169.67 113.168 170.21 113.549L219.918 148.688L223.345 143.79C224.01 142.839 225.319 142.608 226.27 143.273C226.538 143.461 226.758 143.708 226.914 143.996L236.248 161.293C236.799 162.314 236.418 163.588 235.397 164.139C234.996 164.355 234.535 164.435 234.084 164.367L214.71 161.42C213.563 161.245 212.775 160.174 212.95 159.028C212.998 158.708 213.12 158.404 213.305 158.14L216.483 153.597L168.399 119.607L120.104 153.597L123.293 158.135C123.48 158.401 123.603 158.707 123.652 159.028C123.825 160.175 123.036 161.245 121.89 161.419L102.415 164.368C101.963 164.437 101.501 164.356 101.1 164.138C100.08 163.586 99.7015 162.311 100.254 161.291L109.637 143.98C109.791 143.695 110.01 143.449 110.276 143.263C111.224 142.596 112.534 142.825 113.201 143.774L116.654 148.688L166.584 113.547C167.146 113.152 167.796 112.976 168.433 113.003Z" fill="#F0B90B"/>
<g filter="url(#filter6_d)">
<path d="M317 192.915V213.525C317 216.256 314.772 218.471 312.024 218.471C309.276 218.471 307.048 216.256 307.048 213.525V192.915C307.048 191.148 307.997 189.515 309.536 188.632C311.076 187.748 312.972 187.748 314.512 188.632C316.052 189.515 317 191.148 317 192.915ZM258.952 192.915V213.525C258.952 216.256 256.724 218.471 253.976 218.471C251.228 218.471 249 216.256 249 213.525V192.915C249 190.184 251.228 187.969 253.976 187.969C256.724 187.969 258.952 190.184 258.952 192.915ZM293.877 169.346C300.701 172.674 305.073 179.522 305.197 187.076H260.803C260.926 179.514 265.311 172.662 272.15 169.346L268.635 163.04C268.54 162.88 268.515 162.689 268.566 162.26C268.617 162.331 268.739 162.181 268.904 162.094C269.242 161.912 269.663 162.03 269.856 162.36L273.383 168.746C279.51 166.062 286.49 166.062 292.617 168.746L296.171 162.36C296.29 162.132 296.53 161.992 296.788 162C296.905 162.009 297.019 162.041 297.123 162.094C297.291 162.178 297.416 162.328 297.467 162.258C297.518 162.688 297.49 162.881 297.391 163.04L293.877 169.346ZM272.753 178.997C273.775 178.997 274.604 178.174 274.604 177.158C274.609 176.406 274.157 175.725 273.459 175.435C272.761 175.145 271.956 175.303 271.421 175.834C270.887 176.366 270.728 177.166 271.02 177.86C271.312 178.553 271.997 179.003 272.753 178.997ZM293.247 178.997C293.738 178.997 294.209 178.804 294.556 178.459C294.903 178.114 295.098 177.646 295.098 177.158C295.103 176.406 294.651 175.725 293.953 175.435C293.255 175.145 292.45 175.303 291.915 175.834C291.38 176.366 291.222 177.166 291.514 177.86C291.806 178.553 292.49 179.003 293.247 178.997ZM260.803 188.822H305.197V220.817C305.197 223.762 302.795 226.149 299.832 226.149H296.265V237.054C296.265 239.786 294.037 242 291.289 242C288.541 242 286.313 239.786 286.313 237.054V226.149H279.687V237.054C279.687 239.786 277.459 242 274.711 242C271.963 242 269.735 239.786 269.735 237.054V226.149H266.168C263.205 226.149 260.803 223.762 260.803 220.817V188.822Z" fill="#F0B90B"/>
</g>
<path d="M317 192.915V213.525C317 216.256 314.772 218.471 312.024 218.471C309.276 218.471 307.048 216.256 307.048 213.525V192.915C307.048 191.148 307.997 189.515 309.536 188.632C311.076 187.748 312.972 187.748 314.512 188.632C316.052 189.515 317 191.148 317 192.915ZM258.952 192.915V213.525C258.952 216.256 256.724 218.471 253.976 218.471C251.228 218.471 249 216.256 249 213.525V192.915C249 190.184 251.228 187.969 253.976 187.969C256.724 187.969 258.952 190.184 258.952 192.915ZM293.877 169.346C300.701 172.674 305.073 179.522 305.197 187.076H260.803C260.926 179.514 265.311 172.662 272.15 169.346L268.635 163.04C268.54 162.88 268.515 162.689 268.566 162.26C268.617 162.331 268.739 162.181 268.904 162.094C269.242 161.912 269.663 162.03 269.856 162.36L273.383 168.746C279.51 166.062 286.49 166.062 292.617 168.746L296.171 162.36C296.29 162.132 296.53 161.992 296.788 162C296.905 162.009 297.019 162.041 297.123 162.094C297.291 162.178 297.416 162.328 297.467 162.258C297.518 162.688 297.49 162.881 297.391 163.04L293.877 169.346ZM272.753 178.997C273.775 178.997 274.604 178.174 274.604 177.158C274.609 176.406 274.157 175.725 273.459 175.435C272.761 175.145 271.956 175.303 271.421 175.834C270.887 176.366 270.728 177.166 271.02 177.86C271.312 178.553 271.997 179.003 272.753 178.997ZM293.247 178.997C293.738 178.997 294.209 178.804 294.556 178.459C294.903 178.114 295.098 177.646 295.098 177.158C295.103 176.406 294.651 175.725 293.953 175.435C293.255 175.145 292.45 175.303 291.915 175.834C291.38 176.366 291.222 177.166 291.514 177.86C291.806 178.553 292.49 179.003 293.247 178.997ZM260.803 188.822H305.197V220.817C305.197 223.762 302.795 226.149 299.832 226.149H296.265V237.054C296.265 239.786 294.037 242 291.289 242C288.541 242 286.313 239.786 286.313 237.054V226.149H279.687V237.054C279.687 239.786 277.459 242 274.711 242C271.963 242 269.735 239.786 269.735 237.054V226.149H266.168C263.205 226.149 260.803 223.762 260.803 220.817V188.822Z" fill="#F0B90B"/>
<g filter="url(#filter7_d)">
<path d="M74.3287 204.54C74.2355 194.398 82.5783 189.541 82.9509 189.301C79.6017 184.47 74.1783 181.503 68.3144 181.295C62.1005 180.668 56.1794 184.964 53.0259 184.964C49.8724 184.964 45.0423 181.388 39.853 181.482C32.9707 181.677 26.6982 185.488 23.3404 191.516C16.3016 203.779 21.5441 221.926 28.3966 231.854C31.7497 236.725 35.7548 242.182 40.9973 241.995C46.2399 241.809 47.9696 238.713 54.0771 238.713C60.1845 238.713 61.9142 241.995 67.2632 241.889C72.6122 241.782 76.1516 236.938 79.478 232.054C81.8538 228.546 83.7135 224.712 85 220.672C78.5623 217.899 74.3732 211.566 74.3287 204.54ZM64.2827 174.783C67.2962 171.239 68.7887 166.644 68.4341 162C63.8867 162.442 59.6793 164.609 56.6717 168.058C54.0904 171.06 51.8284 175.851 52.4404 180.454C56.9112 180.801 61.4885 178.173 64.2827 174.783Z" fill="#F0B90B"/>
</g>
<path d="M74.3287 204.54C74.2355 194.398 82.5783 189.541 82.9509 189.301C79.6017 184.47 74.1783 181.503 68.3144 181.295C62.1005 180.668 56.1794 184.964 53.0259 184.964C49.8724 184.964 45.0423 181.388 39.853 181.482C32.9707 181.677 26.6982 185.488 23.3404 191.516C16.3016 203.779 21.5441 221.926 28.3966 231.854C31.7497 236.725 35.7548 242.182 40.9973 241.995C46.2399 241.809 47.9696 238.713 54.0771 238.713C60.1845 238.713 61.9142 241.995 67.2632 241.889C72.6122 241.782 76.1516 236.938 79.478 232.054C81.8538 228.546 83.7135 224.712 85 220.672C78.5623 217.899 74.3732 211.566 74.3287 204.54ZM64.2827 174.783C67.2962 171.239 68.7887 166.644 68.4341 162C63.8867 162.442 59.6793 164.609 56.6717 168.058C54.0904 171.06 51.8284 175.851 52.4404 180.454C56.9112 180.801 61.4885 178.173 64.2827 174.783Z" fill="#F0B90B"/>
</g>
<defs>
<filter id="filter0_d" x="133" y="0" width="196" height="44" filterUnits="userSpaceOnUse" color-interpolation-filters="sRGB">
<feFlood flood-opacity="0" result="BackgroundImageFix"/>
<feColorMatrix in="SourceAlpha" type="matrix" values="0 0 0 0 0 0 0 0 0 0 0 0 0 0 0 0 0 0 127 0"/>
<feOffset dy="6"/>
<feGaussianBlur stdDeviation="6"/>
<feColorMatrix type="matrix" values="0 0 0 0 0.25 0 0 0 0 0.507 0 0 0 0 1 0 0 0 0.25 0"/>
<feBlend mode="normal" in2="BackgroundImageFix" result="effect1_dropShadow"/>
<feBlend mode="normal" in="SourceGraphic" in2="effect1_dropShadow" result="shape"/>
</filter>
<filter id="filter1_d" x="8" y="0" width="129" height="44" filterUnits="userSpaceOnUse" color-interpolation-filters="sRGB">
<feFlood flood-opacity="0" result="BackgroundImageFix"/>
<feColorMatrix in="SourceAlpha" type="matrix" values="0 0 0 0 0 0 0 0 0 0 0 0 0 0 0 0 0 0 127 0"/>
<feOffset dy="6"/>
<feGaussianBlur stdDeviation="6"/>
<feColorMatrix type="matrix" values="0 0 0 0 0.25 0 0 0 0 0.507 0 0 0 0 1 0 0 0 0.25 0"/>
<feBlend mode="normal" in2="BackgroundImageFix" result="effect1_dropShadow"/>
<feBlend mode="normal" in="SourceGraphic" in2="effect1_dropShadow" result="shape"/>
</filter>
<filter id="filter2_d" x="222" y="72" width="107" height="44" filterUnits="userSpaceOnUse" color-interpolation-filters="sRGB">
<feFlood flood-opacity="0" result="BackgroundImageFix"/>
<feColorMatrix in="SourceAlpha" type="matrix" values="0 0 0 0 0 0 0 0 0 0 0 0 0 0 0 0 0 0 127 0"/>
<feOffset dy="6"/>
<feGaussianBlur stdDeviation="6"/>
<feColorMatrix type="matrix" values="0 0 0 0 0.25 0 0 0 0 0.507 0 0 0 0 1 0 0 0 0.25 0"/>
<feBlend mode="normal" in2="BackgroundImageFix" result="effect1_dropShadow"/>
<feBlend mode="normal" in="SourceGraphic" in2="effect1_dropShadow" result="shape"/>
</filter>
<filter id="filter3_d" x="8" y="36" width="321" height="44" filterUnits="userSpaceOnUse" color-interpolation-filters="sRGB">
<feFlood flood-opacity="0" result="BackgroundImageFix"/>
<feColorMatrix in="SourceAlpha" type="matrix" values="0 0 0 0 0 0 0 0 0 0 0 0 0 0 0 0 0 0 127 0"/>
<feOffset dy="6"/>
<feGaussianBlur stdDeviation="6"/>
<feColorMatrix type="matrix" values="0 0 0 0 0.25 0 0 0 0 0.507 0 0 0 0 1 0 0 0 0.25 0"/>
<feBlend mode="normal" in2="BackgroundImageFix" result="effect1_dropShadow"/>
<feBlend mode="normal" in="SourceGraphic" in2="effect1_dropShadow" result="shape"/>
</filter>
<filter id="filter4_d" x="8" y="72" width="218" height="44" filterUnits="userSpaceOnUse" color-interpolation-filters="sRGB">
<feFlood flood-opacity="0" result="BackgroundImageFix"/>
<feColorMatrix in="SourceAlpha" type="matrix" values="0 0 0 0 0 0 0 0 0 0 0 0 0 0 0 0 0 0 127 0"/>
<feOffset dy="6"/>
<feGaussianBlur stdDeviation="6"/>
<feColorMatrix type="matrix" values="0 0 0 0 0.25 0 0 0 0 0.507 0 0 0 0 1 0 0 0 0.25 0"/>
<feBlend mode="normal" in2="BackgroundImageFix" result="effect1_dropShadow"/>
<feBlend mode="normal" in="SourceGraphic" in2="effect1_dropShadow" result="shape"/>
</filter>
<filter id="filter5_d" x="88" y="107" width="160.5" height="75.392" filterUnits="userSpaceOnUse" color-interpolation-filters="sRGB">
<feFlood flood-opacity="0" result="BackgroundImageFix"/>
<feColorMatrix in="SourceAlpha" type="matrix" values="0 0 0 0 0 0 0 0 0 0 0 0 0 0 0 0 0 0 127 0"/>
<feOffset dy="6"/>
<feGaussianBlur stdDeviation="6"/>
<feColorMatrix type="matrix" values="0 0 0 0 0.25 0 0 0 0 0.507 0 0 0 0 1 0 0 0 0.25 0"/>
<feBlend mode="normal" in2="BackgroundImageFix" result="effect1_dropShadow"/>
<feBlend mode="normal" in="SourceGraphic" in2="effect1_dropShadow" result="shape"/>
</filter>
<filter id="filter6_d" x="229" y="152" width="108" height="120" filterUnits="userSpaceOnUse" color-interpolation-filters="sRGB">
<feFlood flood-opacity="0" result="BackgroundImageFix"/>
<feColorMatrix in="SourceAlpha" type="matrix" values="0 0 0 0 0 0 0 0 0 0 0 0 0 0 0 0 0 0 127 0"/>
<feOffset dy="10"/>
<feGaussianBlur stdDeviation="10"/>
<feColorMatrix type="matrix" values="0 0 0 0 0.25 0 0 0 0 0.507 0 0 0 0 1 0 0 0 0.25 0"/>
<feBlend mode="normal" in2="BackgroundImageFix" result="effect1_dropShadow"/>
<feBlend mode="normal" in="SourceGraphic" in2="effect1_dropShadow" result="shape"/>
</filter>
<filter id="filter7_d" x="0" y="152" width="105" height="120" filterUnits="userSpaceOnUse" color-interpolation-filters="sRGB">
<feFlood flood-opacity="0" result="BackgroundImageFix"/>
<feColorMatrix in="SourceAlpha" type="matrix" values="0 0 0 0 0 0 0 0 0 0 0 0 0 0 0 0 0 0 127 0"/>
<feOffset dy="10"/>
<feGaussianBlur stdDeviation="10"/>
<feColorMatrix type="matrix" values="0 0 0 0 0.25 0 0 0 0 0.507 0 0 0 0 1 0 0 0 0.25 0"/>
<feBlend mode="normal" in2="BackgroundImageFix" result="effect1_dropShadow"/>
<feBlend mode="normal" in="SourceGraphic" in2="effect1_dropShadow" result="shape"/>
</filter>
<clipPath id="clip0">
<rect width="337" height="271" fill="white"/>
</clipPath>
</defs>
</svg>
